<?xml version="1.0" encoding="UTF-8" standalone="no"?>
<!DOCTYPE svg PUBLIC "-//W3C//DTD SVG 1.1//EN"
 "http://www.w3.org/Graphics/SVG/1.1/DTD/svg11.dtd">
<!-- Generated by graphviz version 5.0.0 (0)
 -->
<!-- Title: protodot Pages: 1 -->
<svg width="351pt" height="233pt"
 viewBox="0.00 0.00 351.00 233.00" xmlns="http://www.w3.org/2000/svg" xmlns:xlink="http://www.w3.org/1999/xlink">
<g id="graph0" class="graph" transform="scale(1 1) rotate(0) translate(4 229)">
<title>protodot</title>
<g id="a_graph0"><a xlink:title="alert">
<text text-anchor="middle" x="171.5" y="-7.8" font-family="Times,serif" font-size="14.00">alert</text>
</a>
</g>
<!-- Node_Ja_100 -->
<g id="node1" class="node">
<title>Node_Ja_100</title>
<g id="a_node1"><a xlink:title="alert.RequestAlert">
<polygon fill="#fffaf0" stroke="transparent" points="241,-85.5 241,-132.5 326,-132.5 326,-85.5 241,-85.5"/>
<polygon fill="#e31a1c" stroke="transparent" points="242.5,-116 242.5,-131 325.5,-131 325.5,-116 242.5,-116"/>
<text text-anchor="start" x="256.5" y="-122" font-family="Ubuntu" font-weight="bold" font-size="10.00">RequestAlert</text>
<text text-anchor="start" x="248.5" y="-106" font-family="Ubuntu" font-size="10.00">1</text>
<text text-anchor="start" x="259.5" y="-106" font-family="Ubuntu" font-size="10.00">Host</text>
<polygon fill="#a6cee3" stroke="transparent" points="295.5,-101 295.5,-116 325.5,-116 325.5,-101 295.5,-101"/>
<text text-anchor="start" x="297.5" y="-107" font-family="Ubuntu" font-style="italic" font-size="10.00">string</text>
<text text-anchor="start" x="248.5" y="-91" font-family="Ubuntu" font-size="10.00">2</text>
<text text-anchor="start" x="259.5" y="-91" font-family="Ubuntu" font-size="10.00">Service</text>
<polygon fill="#a6cee3" stroke="transparent" points="295.5,-86 295.5,-101 325.5,-101 325.5,-86 295.5,-86"/>
<text text-anchor="start" x="297.5" y="-92" font-family="Ubuntu" font-style="italic" font-size="10.00">string</text>
<polygon fill="none" stroke="black" points="241,-85.5 241,-132.5 326,-132.5 326,-85.5 241,-85.5"/>
</a>
</g>
</g>
<!-- Node_Ja_101 -->
<g id="node2" class="node">
<title>Node_Ja_101</title>
<g id="a_node2"><a xlink:title="alert.ResponseAlert">
<polygon fill="#fffaf0" stroke="transparent" points="236.5,-159 236.5,-221 330.5,-221 330.5,-159 236.5,-159"/>
<polygon fill="#e31a1c" stroke="transparent" points="237.5,-205 237.5,-220 329.5,-220 329.5,-205 237.5,-205"/>
<text text-anchor="start" x="254.5" y="-211" font-family="Ubuntu" font-weight="bold" font-size="10.00">ResponseAlert</text>
<text text-anchor="start" x="243.5" y="-195" font-family="Ubuntu" font-size="10.00">1</text>
<text text-anchor="start" x="254.5" y="-195" font-family="Ubuntu" font-size="10.00">Host</text>
<polygon fill="#a6cee3" stroke="transparent" points="299.5,-190 299.5,-205 329.5,-205 329.5,-190 299.5,-190"/>
<text text-anchor="start" x="301.5" y="-196" font-family="Ubuntu" font-style="italic" font-size="10.00">string</text>
<text text-anchor="start" x="243.5" y="-180" font-family="Ubuntu" font-size="10.00">2</text>
<text text-anchor="start" x="254.5" y="-180" font-family="Ubuntu" font-size="10.00">Service</text>
<polygon fill="#a6cee3" stroke="transparent" points="299.5,-175 299.5,-190 329.5,-190 329.5,-175 299.5,-175"/>
<text text-anchor="start" x="301.5" y="-181" font-family="Ubuntu" font-style="italic" font-size="10.00">string</text>
<text text-anchor="start" x="243.5" y="-165" font-family="Ubuntu" font-size="10.00">3</text>
<text text-anchor="start" x="254.5" y="-165" font-family="Ubuntu" font-size="10.00">NotesUrl</text>
<polygon fill="#a6cee3" stroke="transparent" points="299.5,-160 299.5,-175 329.5,-175 329.5,-160 299.5,-160"/>
<text text-anchor="start" x="301.5" y="-166" font-family="Ubuntu" font-style="italic" font-size="10.00">string</text>
<polygon fill="none" stroke="black" points="236.5,-159 236.5,-221 330.5,-221 330.5,-159 236.5,-159"/>
</a>
</g>
</g>
<!-- Node_Ja_102 -->
<g id="node3" class="node">
<title>Node_Ja_102</title>
<g id="a_node3"><a xlink:title="alert.ResponseAlertsList">
<polygon fill="#fffaf0" stroke="transparent" points="232,-27 232,-59 335,-59 335,-27 232,-27"/>
<polygon fill="#e31a1c" stroke="transparent" points="233.5,-43 233.5,-58 334.5,-58 334.5,-43 233.5,-43"/>
<text text-anchor="start" x="235.5" y="-49" font-family="Ubuntu" font-weight="bold" font-size="10.00">ResponseAlertsList</text>
<text text-anchor="start" x="266.5" y="-33" font-family="Ubuntu" font-size="10.00">1</text>
<text text-anchor="start" x="277.5" y="-33" font-family="Ubuntu" font-size="10.00">List</text>
<polygon fill="#a6cee3" stroke="transparent" points="299.5,-28 299.5,-43 334.5,-43 334.5,-28 299.5,-28"/>
<text text-anchor="start" x="306.5" y="-34" font-family="Ubuntu" font-style="italic" font-size="10.00">string</text>
<polygon fill="none" stroke="black" points="232,-27 232,-59 335,-59 335,-27 232,-27"/>
</a>
</g>
</g>
<!-- Node_Ja_103 -->
<g id="node4" class="node">
<title>Node_Ja_103</title>
<g id="a_node4"><a xlink:title="Alert">
<polygon fill="#ffd700" stroke="transparent" points="8,-85.5 8,-162.5 180,-162.5 180,-85.5 8,-85.5"/>
<polygon fill="#ff7f50" stroke="transparent" points="9,-146 9,-161 179,-161 179,-146 9,-146"/>
<text text-anchor="start" x="152" y="-152" font-family="Ubuntu" font-weight="bold" font-size="10.00">Alert</text>
<text text-anchor="start" x="11" y="-137" font-family="Ubuntu" font-weight="bold" font-size="10.00">GetNotesURL</text>
<text text-anchor="start" x="115" y="-136" font-family="Ubuntu" font-size="10.00">RequestAlert</text>
<polygon fill="#ff7f50" stroke="transparent" points="82,-116 82,-131 86,-131 86,-116 82,-116"/>
<polygon fill="#ff7f50" stroke="transparent" points="86,-116 86,-131 179,-131 179,-116 86,-116"/>
<text text-anchor="start" x="108" y="-121" font-family="Ubuntu" font-size="10.00">ResponseAlert</text>
<text text-anchor="start" x="11" y="-107" font-family="Ubuntu" font-weight="bold" font-size="10.00">GetAlertsList</text>
<text text-anchor="start" x="115" y="-106" font-family="Ubuntu" font-size="10.00">RequestAlert</text>
<polygon fill="#ff7f50" stroke="transparent" points="82,-86 82,-101 86,-101 86,-86 82,-86"/>
<polygon fill="#ff7f50" stroke="transparent" points="86,-86 86,-101 179,-101 179,-86 86,-86"/>
<text text-anchor="start" x="88" y="-91" font-family="Ubuntu" font-size="10.00">ResponseAlertsList</text>
<polygon fill="none" stroke="black" points="8,-85.5 8,-162.5 180,-162.5 180,-85.5 8,-85.5"/>
</a>
</g>
</g>
<!-- Node_Ja_103&#45;&gt;Node_Ja_100 -->
<g id="edge1" class="edge">
<title>Node_Ja_103:e&#45;&gt;Node_Ja_100:header</title>
<g id="a_edge1"><a xlink:title="Ja_103 &#45;&#45;&gt; Ja_100">
<path fill="none" stroke="#000000" d="M180,-139C204.4,-139 211.57,-127.72 231.39,-124.72"/>
<polygon fill="#000000" stroke="#000000" points="231.78,-128.21 241.5,-124 231.28,-121.22 231.78,-128.21"/>
</a>
</g>
</g>
<!-- Node_Ja_103&#45;&gt;Node_Ja_100 -->
<g id="edge3" class="edge">
<title>Node_Ja_103:e&#45;&gt;Node_Ja_100:header</title>
<g id="a_edge3"><a xlink:title="Ja_103 &#45;&#45;&gt; Ja_100">
<path fill="none" stroke="#000000" d="M180,-108C204.49,-108 211.52,-120.03 231.37,-123.23"/>
<polygon fill="#000000" stroke="#000000" points="231.26,-126.73 241.5,-124 231.79,-119.75 231.26,-126.73"/>
</a>
</g>
</g>
<!-- Node_Ja_103&#45;&gt;Node_Ja_101 -->
<g id="edge2" class="edge">
<title>Node_Ja_103:e&#45;&gt;Node_Ja_101:header</title>
<g id="a_edge2"><a xlink:title="Ja_103 &#45;&#45;&gt; Ja_101">
<path fill="none" stroke="#000000" d="M180,-123C223.35,-123 194.93,-198.84 226.5,-211.28"/>
<polygon fill="#000000" stroke="#000000" points="226.05,-214.76 236.5,-213 227.24,-207.86 226.05,-214.76"/>
</a>
</g>
</g>
<!-- Node_Ja_103&#45;&gt;Node_Ja_102 -->
<g id="edge4" class="edge">
<title>Node_Ja_103:e&#45;&gt;Node_Ja_102:header</title>
<g id="a_edge4"><a xlink:title="Ja_103 &#45;&#45;&gt; Ja_102">
<path fill="none" stroke="#000000" d="M180,-93C205.91,-93 203.89,-61.42 222.39,-53.03"/>
<polygon fill="#000000" stroke="#000000" points="223.38,-56.4 232.5,-51 222.01,-49.53 223.38,-56.4"/>
</a>
</g>
</g>
</g>
</svg>
